<svg xmlns="http://www.w3.org/2000/svg" viewBox="0 0 1115.84 1253.41"><defs><style>.cls-1{fill:#fcf39f;}.cls-2{fill:none;stroke:#7d4e24;stroke-miterlimit:10;stroke-width:17px;}.cls-3{opacity:0.45;}.cls-4{fill:#7d4e24;}</style></defs><g id="Layer_2" data-name="Layer 2"><g id="Layer_1-2" data-name="Layer 1"><path class="cls-1" d="M1105.22,200.52c5.7.17,1.08,68.31-28,96.8v13.95c-179.25-4.33-370.05-12.81-547-28.82-349-31.57-327.88-36.57-521.73-70.31V150.75c0-11.76,12-21.27,26.79-21.27a2490,2490,0,0,0,268-7.53c401.78-33,714.16-165.11,795.56-91.43,9.9,9-69.36,44.52-94.35,67.12-44.52,40.27-74.73,145.49-13.09,123C1015,211.94,1090.85,200.1,1105.22,200.52Z"/><path class="cls-1" d="M1077.23,1223.62c0,1.42,1.64,21.29-26.79,21.29H35.29c-14.78,0-26.79-9.54-26.79-21.29V212.14c193.85,33.74,172.73,38.74,521.73,70.31,176.95,16,367.75,24.49,547,28.82Z"/><path class="cls-2" d="M1077.23,311.27v912.35c0,1.42,1.64,21.29-26.79,21.29H35.29c-14.78,0-26.79-9.54-26.79-21.29V150.75c0-11.76,12-21.27,26.79-21.27a2490,2490,0,0,0,268-7.53c401.78-33,714.16-165.11,795.56-91.43,9.9,9-69.36,44.52-94.35,67.12-44.52,40.27-74.73,145.49-13.09,123,23.62-8.65,99.44-20.49,113.81-20.07,5.7.17,1.08,68.31-28,96.8Z"/><path class="cls-2" d="M8.5,212.14c193.85,33.74,172.73,38.74,521.73,70.31,176.95,16,367.75,24.49,547,28.82"/><g class="cls-3"><path class="cls-4" d="M901.89,426.37h-718c-1.26,0-2.29,3.72-2.29,8.29v16.77c0,4.58,1,8.29,2.29,8.29h718c1.26,0,2.28-3.71,2.28-8.29V434.66C904.17,430.09,903.15,426.37,901.89,426.37Z"/><path class="cls-4" d="M901.89,1042.54h-718c-1.26,0-2.29,3.71-2.29,8.29v16.77c0,4.58,1,8.29,2.29,8.29h718c1.26,0,2.28-3.71,2.28-8.29v-16.77C904.17,1046.25,903.15,1042.54,901.89,1042.54Z"/><path class="cls-4" d="M901.89,889.38h-718c-1.26,0-2.29,3.71-2.29,8.29v16.77c0,4.58,1,8.29,2.29,8.29h718c1.26,0,2.28-3.71,2.28-8.29V897.67C904.17,893.09,903.15,889.38,901.89,889.38Z"/><path class="cls-4" d="M901.89,579.53h-718c-1.26,0-2.29,3.71-2.29,8.29v16.77c0,4.58,1,8.29,2.29,8.29h718c1.26,0,2.28-3.71,2.28-8.29V587.82C904.17,583.24,903.15,579.53,901.89,579.53Z"/><path class="cls-4" d="M901.89,735.9h-718c-1.26,0-2.29,3.71-2.29,8.29V761c0,4.58,1,8.29,2.29,8.29h718c1.26,0,2.28-3.71,2.28-8.29V744.19C904.17,739.61,903.15,735.9,901.89,735.9Z"/></g><path class="cls-4" d="M16,136,7.66,213.14c168.18,26.2,347.14,49,536.06,66.4,188.67,17.4,368.56,27.71,538.49,32.71q9.94-52.49,19.88-105L955.57,217.51l26.7-101.65A445.86,445.86,0,0,0,1042,76.21a445.26,445.26,0,0,0,50.13-46,147.83,147.83,0,0,0-41.27-19.45C1012-.61,978.42,7.25,963,12,830.88,43.26,685.78,73.32,528.18,93.42,345.62,116.71,174.16,129.82,16,136Z"/></g></g></svg>